<svg width="21" height="20" viewBox="0 0 21 20" fill="none" xmlns="http://www.w3.org/2000/svg">
<path d="M17.5503 0H3.44822C1.8267 0 0.5 1.3267 0.5 2.94822V17.0518C0.5 18.6733 1.8267 20 3.44822 20H17.5518C19.1733 20 20.5 18.6733 20.5 17.0518V2.94822C20.4985 1.3267 19.1733 0 17.5503 0ZM17.3609 10.6748H14.9876V19.2615H11.4364V10.6748H9.66013V7.71476H11.4364V5.93846C11.4364 3.52386 12.4388 2.08734 15.2912 2.08734H17.6623V5.04662H16.1794C15.0708 5.04662 14.9971 5.46158 14.9971 6.23328L14.9876 7.71476H17.6741L17.3609 10.6748Z" fill="white"/>
</svg>
