<svg width="21" height="20" viewBox="0 0 21 20" fill="none" xmlns="http://www.w3.org/2000/svg">
<path d="M19.3998 1.10016C18.6661 0.366385 17.7831 0 16.7501 0H4.24994C3.21685 0 2.33393 0.366385 1.60016 1.10016C0.866385 1.83393 0.5 2.71685 0.5 3.74994V16.2501C0.5 17.2831 0.866385 18.1661 1.60016 18.8998C2.33393 19.6336 3.21685 20 4.24994 20H7.167C7.3572 20 7.50035 19.993 7.59645 19.98C7.70826 19.9576 7.80918 19.8979 7.88275 19.8108C7.97785 19.7107 8.0259 19.5655 8.0259 19.3753L8.01889 18.4894C8.01489 17.9248 8.01289 17.4784 8.01289 17.148L7.71257 17.2001C7.52237 17.2351 7.28212 17.2501 6.99082 17.2461C6.68718 17.2405 6.38452 17.21 6.08586 17.155C5.76793 17.0963 5.46864 16.9625 5.21295 16.7646C4.94516 16.562 4.74543 16.2827 4.64035 15.9638L4.51021 15.6634C4.40052 15.4265 4.26272 15.2037 4.09978 14.9997C3.91358 14.7565 3.72439 14.5923 3.53318 14.5052L3.44309 14.4402C3.38027 14.3952 3.32312 14.3427 3.27291 14.284C3.22495 14.2295 3.18547 14.1681 3.15579 14.1018C3.12976 14.0407 3.15178 13.9907 3.22086 13.9516C3.29093 13.9116 3.41606 13.8926 3.59925 13.8926L3.85953 13.9326C4.03271 13.9667 4.24794 14.0708 4.5032 14.244C4.76154 14.4201 4.97733 14.6516 5.13487 14.9217C5.33508 15.277 5.57533 15.5483 5.85763 15.7355C6.13992 15.9217 6.42422 16.0158 6.71052 16.0158C6.99682 16.0158 7.24408 15.9938 7.4533 15.9507C7.65563 15.9089 7.85223 15.843 8.03892 15.7545C8.117 15.1739 8.32922 14.7255 8.67659 14.4131C8.22649 14.369 7.7804 14.2907 7.34218 14.1789C6.91453 14.0614 6.50324 13.8909 6.1179 13.6714C5.71472 13.4519 5.35861 13.1553 5.0698 12.7984C4.79251 12.4511 4.56427 11.9956 4.38608 11.432C4.20889 10.8674 4.1198 10.2157 4.1198 9.47795C4.1198 8.42785 4.46216 7.53391 5.14788 6.79513C4.82754 6.00631 4.85758 5.12038 5.23898 4.14035C5.49124 4.06126 5.86463 4.12033 6.35915 4.31553C6.85367 4.51074 7.21605 4.67791 7.44629 4.81606C7.67654 4.9562 7.86073 5.07333 7.99987 5.16843C8.81371 4.94194 9.65474 4.8281 10.4995 4.83007C11.3594 4.83007 12.1923 4.94319 13.0001 5.16843L13.4946 4.8561C13.875 4.62771 14.2762 4.43598 14.6929 4.2835C15.1534 4.10931 15.5038 4.06227 15.748 4.14035C16.1384 5.12138 16.1725 6.00631 15.8511 6.79614C16.5368 7.53391 16.8802 8.42785 16.8802 9.47895C16.8802 10.2167 16.7911 10.8704 16.6129 11.438C16.4357 12.0066 16.2055 12.4621 15.9232 12.8054C15.6293 13.1577 15.2717 13.4515 14.8691 13.6714C14.4486 13.9056 14.0402 14.0748 13.6448 14.1789C13.2066 14.2911 12.7605 14.3697 12.3104 14.4141C12.7609 14.8045 12.9871 15.4202 12.9871 16.2621V19.3753C12.9871 19.5225 13.0081 19.6416 13.0522 19.7327C13.0724 19.7766 13.1013 19.816 13.1371 19.8485C13.1728 19.881 13.2148 19.906 13.2604 19.9219C13.3565 19.956 13.4406 19.978 13.5147 19.986C13.5887 19.996 13.6949 19.999 13.833 19.999H16.7501C17.7831 19.999 18.6661 19.6326 19.3998 18.8988C20.1326 18.1661 20.5 17.2821 20.5 16.2491V3.74994C20.5 2.71685 20.1336 1.83393 19.3998 1.10016Z" fill="white"/>
</svg>
