<svg width="24" height="24" viewBox="0 0 24 24" fill="none" xmlns="http://www.w3.org/2000/svg">
<path d="M12 0C18.6276 0 24 5.3724 24 12C24 18.6276 18.6276 24 12 24C5.3724 24 0 18.6276 0 12C0 5.3724 5.3724 0 12 0ZM12 4.8C11.6817 4.8 11.3765 4.92643 11.1515 5.15147C10.9264 5.37652 10.8 5.68174 10.8 6V12C10.8001 12.3182 10.9265 12.6234 11.1516 12.8484L14.7516 16.4484C14.9779 16.667 15.281 16.7879 15.5957 16.7852C15.9103 16.7825 16.2113 16.6563 16.4338 16.4338C16.6563 16.2113 16.7825 15.9103 16.7852 15.5957C16.7879 15.281 16.667 14.9779 16.4484 14.7516L13.2 11.5032V6C13.2 5.68174 13.0736 5.37652 12.8485 5.15147C12.6235 4.92643 12.3183 4.8 12 4.8Z" fill="black"/>
</svg>
