<svg width="24" height="24" viewBox="0 0 24 24" fill="none" xmlns="http://www.w3.org/2000/svg">
<path d="M18.75 10.5C21.645 10.5 24 8.145 24 5.25C24 2.355 21.645 0 18.75 0C15.855 0 13.5 2.355 13.5 5.25V7.5H10.5V5.25C10.5 2.355 8.145 0 5.25 0C2.355 0 0 2.355 0 5.25C0 8.145 2.355 10.5 5.25 10.5H7.5V13.5H5.25C2.355 13.5 0 15.855 0 18.75C0 21.645 2.355 24 5.25 24C8.145 24 10.5 21.645 10.5 18.75V16.5H13.5V18.75C13.5 21.645 15.855 24 18.75 24C21.645 24 24 21.645 24 18.75C24 15.855 21.645 13.5 18.75 13.5H16.5V10.5H18.75ZM16.5 5.25C16.5213 4.66748 16.7676 4.11592 17.1873 3.71133C17.6069 3.30674 18.1671 3.08067 18.75 3.08067C19.3329 3.08067 19.8931 3.30674 20.3127 3.71133C20.7324 4.11592 20.9787 4.66748 21 5.25C21 6.489 19.9905 7.5 18.75 7.5H16.5V5.25ZM7.5 18.75C7.5 19.989 6.4905 21 5.25 21C4.0095 21 3 19.989 3 18.75C3 17.508 4.0095 16.5 5.25 16.5H7.5V18.75ZM7.5 7.5H5.25C4.80457 7.5003 4.36906 7.36846 3.99857 7.12118C3.62808 6.8739 3.33927 6.52227 3.16867 6.1108C2.99808 5.69934 2.95336 5.24651 3.04019 4.80962C3.12702 4.37273 3.34148 3.97142 3.65645 3.65645C3.97142 3.34148 4.37273 3.12702 4.80962 3.04019C5.24651 2.95336 5.69934 2.99808 6.1108 3.16867C6.52227 3.33927 6.8739 3.62808 7.12118 3.99857C7.36846 4.36906 7.5003 4.80457 7.5 5.25V7.5ZM13.5 13.5H10.5V10.5H13.5V13.5ZM18.75 16.5C19.3325 16.5213 19.8841 16.7676 20.2887 17.1873C20.6933 17.6069 20.9193 18.1671 20.9193 18.75C20.9193 19.3329 20.6933 19.8931 20.2887 20.3127C19.8841 20.7324 19.3325 20.9787 18.75 21C17.5095 21 16.5 19.989 16.5 18.75V16.5H18.75Z" fill="black"/>
</svg>
