<svg width="119" height="29" viewBox="0 0 119 29" fill="none" xmlns="http://www.w3.org/2000/svg">
<path d="M10.32 16.44H8.88C8.4 16.44 8.09333 16.5333 7.96 16.72C7.82667 16.88 7.76 17.1733 7.76 17.6V29H2.36C1.66667 29 1.18667 28.8933 0.92 28.68C0.68 28.44 0.56 28.0533 0.56 27.52V15.52C0.56 14.5333 0.76 13.8133 1.16 13.36C1.56 12.88 2.26667 12.64 3.28 12.64H10.32V16.44ZM21.2 21.28V26.76C21.2 28.0133 20.9333 28.72 20.4 28.88C20.1333 28.96 19.7467 29 19.24 29H9.44V25.2H12.76C13.32 25.2 13.6667 25.12 13.8 24.96C13.9333 24.7733 14 24.4533 14 24V21.28H21.2ZM12.32 3.88H8.96C8.4 3.88 8.05333 3.97333 7.92 4.16C7.78667 4.32 7.72 4.62667 7.72 5.08V7.8H0.52V2.76C0.52 1.37333 0.8 0.546666 1.36 0.279998C1.65333 0.146665 2.02667 0.079998 2.48 0.079998H12.32V3.88ZM13.96 0.079998H19.36C20.1333 0.079998 20.6267 0.226665 20.84 0.52C21.0533 0.813332 21.16 1.42667 21.16 2.36V14.52C21.16 15.1867 21.0667 15.68 20.88 16C20.6933 16.2933 20.28 16.44 19.64 16.44H11.92V12.64H12.88C13.36 12.64 13.6533 12.56 13.76 12.4C13.8933 12.2133 13.96 11.9067 13.96 11.48V0.079998ZM41.7831 9V14.92C41.7831 16.2267 41.4498 17.2 40.7831 17.84C40.1431 18.4533 39.0231 18.76 37.4231 18.76H34.3831V15.76H35.0231C35.4498 15.76 35.6898 15.5867 35.7431 15.24C35.7698 15.08 35.7831 14.8533 35.7831 14.56V10.64C35.7831 9.54667 36.2631 9 37.2231 9H41.7831ZM33.1831 22.56H32.5431C32.1165 22.56 31.8765 22.7333 31.8231 23.08C31.7965 23.24 31.7831 23.4667 31.7831 23.76V27.36C31.7831 28.4533 31.3031 29 30.3431 29H25.7831V23.4C25.7831 22.0933 26.1031 21.1333 26.7431 20.52C27.4098 19.88 28.5431 19.56 30.1431 19.56H33.1831V22.56ZM34.3831 19.56H37.4231C39.0231 19.56 40.1431 19.88 40.7831 20.52C41.4498 21.1333 41.7831 22.0933 41.7831 23.4V29H37.2231C36.2631 29 35.7831 28.4533 35.7831 27.36V23.76C35.7831 23.2267 35.7165 22.8933 35.5831 22.76C35.4498 22.6267 35.2631 22.56 35.0231 22.56H34.3831V19.56ZM25.7831 9H30.3431C31.3031 9 31.7831 9.54667 31.7831 10.64V14.56C31.7831 15.0933 31.8498 15.4267 31.9831 15.56C32.1165 15.6933 32.3031 15.76 32.5431 15.76H33.1831V18.76H30.1431C28.5431 18.76 27.4098 18.4533 26.7431 17.84C26.1031 17.2 25.7831 16.2267 25.7831 14.92V9ZM46.1794 9.04H48.6194C49.7927 9.04 50.6727 9.33333 51.2594 9.92C51.8727 10.48 52.1794 11.2133 52.1794 12.12V29H47.6194C47.1927 29 46.846 28.8533 46.5794 28.56C46.3127 28.2667 46.1794 27.88 46.1794 27.4V9.04ZM46.4594 0.52C46.7527 0.226665 47.606 0.079998 49.0194 0.079998C50.4327 0.079998 51.286 0.226665 51.5794 0.52C51.8727 0.786666 52.0194 1.58667 52.0194 2.92C52.0194 4.25333 51.8594 5.06666 51.5394 5.36C51.246 5.65333 50.406 5.8 49.0194 5.8C47.6327 5.8 46.7794 5.65333 46.4594 5.36C46.166 5.06666 46.0194 4.25333 46.0194 2.92C46.0194 1.58667 46.166 0.786666 46.4594 0.52ZM65.2853 28.72C65.2853 28.9067 65.2186 29 65.0853 29H61.0453C59.552 29 58.4453 28.6533 57.7253 27.96C57.032 27.2667 56.6853 26.1333 56.6853 24.56V0.119998H59.1253C60.2986 0.119998 61.1786 0.413331 61.7653 0.999998C62.3786 1.56 62.6853 2.29333 62.6853 3.2V24.48C62.6853 25.3067 62.8586 25.7733 63.2053 25.88C63.392 25.96 63.6453 26 63.9653 26H64.9653C65.1786 26 65.2853 26.0933 65.2853 26.28V28.72ZM83.9344 9V22.76C83.9344 25.7467 82.9877 27.64 81.0944 28.44C80.2677 28.8133 79.2277 29 77.9744 29H76.5344V26C77.4677 26 77.9344 25.3333 77.9344 24V10.64C77.9344 9.54667 78.4144 9 79.3744 9H83.9344ZM67.9344 9H72.4944C73.4544 9 73.9344 9.54667 73.9344 10.64V24C73.9344 25.3333 74.401 26 75.3344 26V29H73.8944C71.3877 29 69.7344 28.3067 68.9344 26.92C68.2677 25.8267 67.9344 24.44 67.9344 22.76V9ZM94.365 29H94.285C91.645 29 90.0183 28.5467 89.405 27.64C89.1117 27.2133 88.8717 26.8 88.685 26.4C88.525 26 88.4183 25.3733 88.365 24.52C88.2317 22.9733 88.165 21.2533 88.165 19.36C88.165 17.4667 88.1783 16.1067 88.205 15.28C88.2317 14.4267 88.3117 13.5733 88.445 12.72C88.605 11.84 88.805 11.2133 89.045 10.84C89.285 10.44 89.645 10.08 90.125 9.76C90.605 9.44 91.165 9.24 91.805 9.16C92.445 9.05333 93.2717 9 94.285 9H94.365V29ZM105.005 22.68V24.72C105.005 27.5733 103.552 29 100.645 29H95.605V26H97.765C98.325 26 98.6717 25.92 98.805 25.76C98.9383 25.5733 99.005 25.2533 99.005 24.8V23.52C99.005 23.12 99.045 22.8933 99.125 22.84C99.2317 22.7867 99.2983 22.76 99.325 22.76C99.3517 22.7333 99.4183 22.72 99.525 22.72C99.6583 22.6933 99.7517 22.68 99.805 22.68C101.538 22.68 103.272 22.68 105.005 22.68ZM95.605 9H100.245C102.085 9 103.338 9.36 104.005 10.08C104.672 10.8 105.005 11.8667 105.005 13.28V16.8C105.005 19.2 103.698 20.4 101.085 20.4H95.205V17.4H97.365C98.005 17.4 98.4317 17.32 98.645 17.16C98.885 17 99.005 16.6933 99.005 16.24V13.2C99.005 12.7467 98.9383 12.44 98.805 12.28C98.6717 12.0933 98.325 12 97.765 12H95.605V9ZM113.506 9H118.306C118.466 9 118.546 9.09333 118.546 9.28V11.72C118.546 11.9067 118.44 12 118.226 12H116.426C115.786 12 115.413 12.12 115.306 12.36C115.2 12.7067 115.146 13.0933 115.146 13.52V25.92C115.146 26.8267 114.84 27.5733 114.226 28.16C113.64 28.72 112.76 29 111.586 29H109.146V13.44C109.146 11.8667 109.493 10.7333 110.186 10.04C110.906 9.34667 112.013 9 113.506 9Z" fill="white"/>
</svg>
