<svg width="21" height="20" viewBox="0 0 21 20" fill="none" xmlns="http://www.w3.org/2000/svg">
<path d="M17.6429 0C19.2188 0 20.5 1.28125 20.5 2.85714V17.1429C20.5 18.7188 19.2188 20 17.6429 20H3.35714C1.78125 20 0.5 18.7188 0.5 17.1429V2.85714C0.5 1.28125 1.78125 0 3.35714 0H17.6429ZM13.5937 4.31696C13.1607 4.20089 12.7054 4.41964 12.5357 4.83482L11.6429 6.97768C11.4911 7.34375 11.5982 7.76339 11.9018 8.01339L13 8.91518C12.2589 10.4866 10.9866 11.7589 9.41518 12.5L8.51339 11.3973C8.26339 11.0937 7.84375 10.9866 7.47768 11.1384L5.33482 12.0313C4.91964 12.2054 4.70089 12.6563 4.81696 13.0893L5.35268 15.0536C5.45982 15.4464 5.8125 15.7143 6.21429 15.7143C11.7366 15.7143 16.2143 11.2366 16.2143 5.71429C16.2143 5.3125 15.9464 4.95982 15.558 4.85268L13.5937 4.31696Z" fill="white"/>
</svg>
